<?xml version="1.0" encoding="UTF-8" standalone="no"?>
<!-- Created with Inkscape (http://www.inkscape.org/) -->

<svg
   version="1.1"
   id="svg2"
   width="174.78627"
   height="118.35038"
   viewBox="0 0 174.78627 118.35038"
   sodipodi:docname="logosPinterest.svg"
   inkscape:version="1.3.2 (091e20e, 2023-11-25, custom)"
   xmlns:inkscape="http://www.inkscape.org/namespaces/inkscape"
   xmlns:sodipodi="http://sodipodi.sourceforge.net/DTD/sodipodi-0.dtd"
   xmlns:xlink="http://www.w3.org/1999/xlink"
   xmlns="http://www.w3.org/2000/svg"
   xmlns:svg="http://www.w3.org/2000/svg">
  <defs
     id="defs6">
    <linearGradient
       id="linearGradient3"
       inkscape:collect="always">
      <stop
         style="stop-color:#ef2f36;stop-opacity:1;"
         offset="0"
         id="stop3" />
      <stop
         style="stop-color:#800000;stop-opacity:1"
         offset="1"
         id="stop4" />
    </linearGradient>
    <linearGradient
       id="linearGradient1"
       inkscape:collect="always">
      <stop
         style="stop-color:#ef2f36;stop-opacity:1"
         offset="0"
         id="stop1" />
      <stop
         style="stop-color:#f4d7d7;stop-opacity:1"
         offset="1"
         id="stop2" />
    </linearGradient>
    <clipPath
       clipPathUnits="userSpaceOnUse"
       id="clipPath276">
      <path
         d="m 3412.04,2919.11 c 0,-97.7 -79.2,-176.91 -176.9,-176.91 -97.71,0 -176.91,79.21 -176.91,176.91 0,97.71 79.2,176.91 176.91,176.91 97.7,0 176.9,-79.2 176.9,-176.91 z"
         id="path274" />
    </clipPath>
    <linearGradient
       x1="0"
       y1="0"
       x2="1"
       y2="0"
       gradientUnits="userSpaceOnUse"
       gradientTransform="matrix(353.746,-298.772,-298.772,-353.746,3069.42,3059.07)"
       spreadMethod="pad"
       id="linearGradient292">
      <stop
         style="stop-opacity:1;stop-color:#f9d76c"
         offset="0"
         id="stop278" />
      <stop
         style="stop-opacity:1;stop-color:#f9d76c"
         offset="0.0011048"
         id="stop280" />
      <stop
         style="stop-opacity:1;stop-color:#f9a837"
         offset="0.209357"
         id="stop282" />
      <stop
         style="stop-opacity:1;stop-color:#f03d74"
         offset="0.37646"
         id="stop284" />
      <stop
         style="stop-opacity:1;stop-color:#e62299"
         offset="0.523815"
         id="stop286" />
      <stop
         style="stop-opacity:1;stop-color:#6f3ea2"
         offset="0.739443"
         id="stop288" />
      <stop
         style="stop-opacity:1;stop-color:#4850ab"
         offset="1"
         id="stop290" />
    </linearGradient>
    <clipPath
       clipPathUnits="userSpaceOnUse"
       id="clipPath334">
      <path
         d="m 2687.78,3033.46 c -11.45,0 -20.74,-9.29 -20.74,-20.74 0,-11.46 9.29,-20.75 20.74,-20.75 11.46,0 20.74,9.29 20.74,20.75 0,11.45 -9.28,20.74 -20.74,20.74 z"
         id="path332" />
    </clipPath>
    <linearGradient
       x1="0"
       y1="0"
       x2="1"
       y2="0"
       gradientUnits="userSpaceOnUse"
       gradientTransform="matrix(320.881,-307.137,-307.137,-320.881,2525.7,3167.86)"
       spreadMethod="pad"
       id="linearGradient350">
      <stop
         style="stop-opacity:1;stop-color:#f9d76c"
         offset="0"
         id="stop336" />
      <stop
         style="stop-opacity:1;stop-color:#f9d76c"
         offset="0.0011048"
         id="stop338" />
      <stop
         style="stop-opacity:1;stop-color:#f9a837"
         offset="0.209357"
         id="stop340" />
      <stop
         style="stop-opacity:1;stop-color:#f03d74"
         offset="0.37646"
         id="stop342" />
      <stop
         style="stop-opacity:1;stop-color:#e62299"
         offset="0.523815"
         id="stop344" />
      <stop
         style="stop-opacity:1;stop-color:#6f3ea2"
         offset="0.739443"
         id="stop346" />
      <stop
         style="stop-opacity:1;stop-color:#4850ab"
         offset="1"
         id="stop348" />
    </linearGradient>
    <clipPath
       clipPathUnits="userSpaceOnUse"
       id="clipPath360">
      <path
         d="m 2595.57,2863.91 c -30.78,0 -55.82,25.04 -55.82,55.81 0,30.78 25.04,55.82 55.82,55.82 30.77,0 55.81,-25.04 55.81,-55.82 0,-30.77 -25.04,-55.81 -55.81,-55.81 z m 0,142.95 c -48.05,0 -87.14,-39.09 -87.14,-87.14 0,-48.04 39.09,-87.13 87.14,-87.13 48.04,0 87.13,39.09 87.13,87.13 0,48.05 -39.09,87.14 -87.13,87.14 z"
         id="path358" />
    </clipPath>
    <linearGradient
       x1="0"
       y1="0"
       x2="1"
       y2="0"
       gradientUnits="userSpaceOnUse"
       gradientTransform="matrix(320.881,-307.137,-307.137,-320.881,2435.16,3073.26)"
       spreadMethod="pad"
       id="linearGradient376">
      <stop
         style="stop-opacity:1;stop-color:#f9d76c"
         offset="0"
         id="stop362" />
      <stop
         style="stop-opacity:1;stop-color:#f9d76c"
         offset="0.0011048"
         id="stop364" />
      <stop
         style="stop-opacity:1;stop-color:#f9a837"
         offset="0.209357"
         id="stop366" />
      <stop
         style="stop-opacity:1;stop-color:#f03d74"
         offset="0.37646"
         id="stop368" />
      <stop
         style="stop-opacity:1;stop-color:#e62299"
         offset="0.523815"
         id="stop370" />
      <stop
         style="stop-opacity:1;stop-color:#6f3ea2"
         offset="0.739443"
         id="stop372" />
      <stop
         style="stop-opacity:1;stop-color:#4850ab"
         offset="1"
         id="stop374" />
    </linearGradient>
    <clipPath
       clipPathUnits="userSpaceOnUse"
       id="clipPath386">
      <path
         d="m 2523.48,3063.34 c -40.25,0 -72.99,-32.74 -72.99,-72.99 v -141.26 c 0,-40.25 32.74,-72.99 72.99,-72.99 h 141.26 c 40.25,0 72.99,32.74 72.99,72.99 v 141.26 c 0,40.25 -32.74,72.99 -72.99,72.99 z m 141.26,-320.53 h -141.26 c -58.6,0 -106.27,47.68 -106.27,106.28 v 141.26 c 0,58.61 47.67,106.28 106.27,106.28 h 141.26 c 58.6,0 106.28,-47.67 106.28,-106.28 v -141.26 c 0,-58.6 -47.68,-106.28 -106.28,-106.28 z"
         id="path384" />
    </clipPath>
    <linearGradient
       x1="0"
       y1="0"
       x2="1"
       y2="0"
       gradientUnits="userSpaceOnUse"
       gradientTransform="matrix(320.879,-307.135,-307.135,-320.879,2434.46,3072.54)"
       spreadMethod="pad"
       id="linearGradient402">
      <stop
         style="stop-opacity:1;stop-color:#f9d76c"
         offset="0"
         id="stop388" />
      <stop
         style="stop-opacity:1;stop-color:#f9d76c"
         offset="0.0011048"
         id="stop390" />
      <stop
         style="stop-opacity:1;stop-color:#f9a837"
         offset="0.209357"
         id="stop392" />
      <stop
         style="stop-opacity:1;stop-color:#f03d74"
         offset="0.37646"
         id="stop394" />
      <stop
         style="stop-opacity:1;stop-color:#e62299"
         offset="0.523815"
         id="stop396" />
      <stop
         style="stop-opacity:1;stop-color:#6f3ea2"
         offset="0.739443"
         id="stop398" />
      <stop
         style="stop-opacity:1;stop-color:#4850ab"
         offset="1"
         id="stop400" />
    </linearGradient>
    <linearGradient
       inkscape:collect="always"
       xlink:href="#linearGradient1"
       id="linearGradient2"
       x1="3509.8491"
       y1="2190.551"
       x2="3703.5164"
       y2="1835.7965"
       gradientUnits="userSpaceOnUse" />
    <linearGradient
       inkscape:collect="always"
       xlink:href="#linearGradient3"
       id="linearGradient4"
       x1="4192.209"
       y1="2205.0312"
       x2="4201.2588"
       y2="1815.8867"
       gradientUnits="userSpaceOnUse"
       gradientTransform="translate(-209.95692)" />
  </defs>
  <sodipodi:namedview
     id="namedview4"
     pagecolor="#ffffff"
     bordercolor="#000000"
     borderopacity="0.25"
     inkscape:showpageshadow="2"
     inkscape:pageopacity="0.0"
     inkscape:pagecheckerboard="0"
     inkscape:deskcolor="#d1d1d1"
     inkscape:zoom="1.0359268"
     inkscape:cx="74.812235"
     inkscape:cy="125.00883"
     inkscape:window-width="2160"
     inkscape:window-height="1406"
     inkscape:window-x="628"
     inkscape:window-y="1609"
     inkscape:window-maximized="1"
     inkscape:current-layer="g8" />
  <g
     id="g8"
     inkscape:groupmode="layer"
     inkscape:label="ink_ext_XXXXXX"
     transform="matrix(1.3333333,0,0,-1.3333333,-415.08724,338.44312)">
    <g
       id="g10"
       transform="matrix(0.1,0,0,0.1,0.51193781,2.559689)">
      <path
         d="m 3992.7356,2255.2395 c -97.7,0 -176.9,-79.21 -176.9,-176.92 0,-71.96 43.04,-133.77 104.72,-161.4 -0.21,4.97 -0.42,9.94 -0.26,14.93 0.58,17.21 2.7,23.11 24.88,116.39 0.33,1.42 -0.03,2.6 -0.51,3.88 -5.3,14.33 -6.36,28.86 -1.72,43.6 10.04,31.8 46.1,34.24 52.41,7.99 3.88,-16.24 -6.39,-37.48 -14.28,-68.88 -6.53,-25.91 23.96,-44.33 50.03,-25.41 24.05,17.43 33.37,59.24 31.61,88.86 -3.5,59.08 -68.28,71.85 -109.38,52.83 -47.11,-21.79 -57.82,-80.2 -36.55,-106.88 2.7,-3.4 4.78,-5.47 3.89,-8.91 -1.37,-5.35 -2.58,-10.73 -4.06,-16.05 -1.1,-3.95 -4.41,-5.39 -8.4,-3.77 -7.85,3.17 -14.38,8.17 -19.68,14.75 -18.07,22.37 -23.23,66.61 0.66,104.07 26.46,41.5 75.67,58.28 120.62,53.19 53.67,-6.1 87.6,-42.77 93.96,-84.38 2.89,-18.96 0.8,-65.69 -25.8,-98.72 -30.61,-37.96 -80.22,-40.47 -103.12,-17.18 -1.76,1.79 -3.17,3.89 -4.9,6.02 -0.25,-0.86 -0.49,-1.59 -0.67,-2.31 -10.99,-43.06 -12.21,-52.62 -23.5,-72.62 -1.75,-3.06 -3.67,-6 -5.55,-8.97 16.59,-5.16 34.22,-7.93 52.5,-7.93 97.71,0 176.91,79.2 176.91,176.9 0,97.71 -79.2,176.92 -176.91,176.92"
         style="fill:url(#linearGradient4);fill-opacity:1;fill-rule:nonzero;stroke:none"
         id="path314" />
      <path
         d="m 3969.2856,1990.9395 c 0.18,0.72 0.42,1.45 0.67,2.31 1.73,-2.13 3.14,-4.23 4.9,-6.02 22.9,-23.29 72.51,-20.78 103.12,17.18 26.6,33.03 28.69,79.76 25.8,98.72 -6.36,41.61 -40.29,78.28 -93.96,84.38 -44.95,5.09 -94.16,-11.69 -120.62,-53.19 -23.89,-37.46 -18.73,-81.7 -0.66,-104.07 5.3,-6.58 11.83,-11.58 19.68,-14.75 3.99,-1.62 7.3,-0.18 8.4,3.77 1.48,5.32 2.69,10.7 4.06,16.05 0.89,3.44 -1.19,5.51 -3.89,8.91 -21.27,26.68 -10.56,85.09 36.55,106.88 41.1,19.02 105.88,6.25 109.38,-52.83 1.76,-29.62 -7.56,-71.43 -31.61,-88.86 -26.07,-18.92 -56.56,-0.5 -50.03,25.41 7.89,31.4 18.16,52.64 14.28,68.88 -6.31,26.25 -42.37,23.81 -52.41,-7.99 -4.64,-14.74 -3.58,-29.27 1.72,-43.6 0.48,-1.28 0.84,-2.46 0.51,-3.88 -22.18,-93.28 -24.3,-99.18 -24.88,-116.39 -0.16,-4.99 0.05,-9.96 0.26,-14.93 6.39,-2.86 12.91,-5.47 19.68,-7.57 1.88,2.97 3.8,5.91 5.55,8.97 11.29,20 12.51,29.56 23.5,72.62"
         style="fill:#ffffff;fill-opacity:1;fill-rule:nonzero;stroke:none"
         id="path316" />
      <path
         d="m 3539.2525,2024.7995 c -0.3,-1.02 -0.58,-1.87 -0.8,-2.73 -13,-50.91 -14.44,-62.22 -27.8,-85.88 -6.37,-11.23 -13.54,-21.88 -21.48,-32.08 -0.89,-1.15 -1.73,-2.63 -3.52,-2.27 -1.96,0.42 -2.11,2.18 -2.32,3.75 -2.14,15.47 -3.32,30.99 -2.81,46.6 0.68,20.35 3.2,27.33 29.43,137.65 0.38,1.68 -0.05,3.07 -0.61,4.6 -6.28,16.93 -7.52,34.12 -2.04,51.54 11.87,37.63 54.53,40.51 61.99,9.46 4.59,-19.2 -7.56,-44.32 -16.9,-81.46 -7.72,-30.65 28.35,-52.43 59.18,-30.06 28.44,20.62 39.47,70.07 37.37,105.11 -4.14,69.86 -80.74,84.96 -129.35,62.46 -55.71,-25.76 -68.38,-94.83 -43.22,-126.39 3.19,-4.02 5.65,-6.47 4.59,-10.55 -1.62,-6.31 -3.05,-12.68 -4.79,-18.97 -1.31,-4.67 -5.22,-6.38 -9.95,-4.45 -9.27,3.75 -17,9.65 -23.27,17.43 -21.36,26.45 -27.47,78.79 0.78,123.08 31.29,49.09 89.5,68.94 142.65,62.91 63.48,-7.21 103.61,-50.59 111.12,-99.79 3.42,-22.42 0.96,-77.69 -30.51,-116.76 -36.19,-44.89 -94.87,-47.86 -121.95,-20.31 -2.08,2.11 -3.76,4.59 -5.79,7.11"
         style="fill:url(#linearGradient2);fill-opacity:1;fill-rule:evenodd;stroke:none"
         id="path410" />
    </g>
  </g>
</svg>
